<svg width="9" height="84" viewBox="0 0 9 84" fill="none" xmlns="http://www.w3.org/2000/svg">
<path d="M0.33358 11.3636V2.92209H2.44397V5.03248H6.66475V2.92209H8.77514V11.3636H6.66475V7.14287H2.44397V11.3636H0.33358ZM2.44397 0.8117V2.92209H6.66475V0.8117H2.44397ZM6.6141 18.8117H8.72449V27.2533H6.6141V18.8117ZM6.6141 29.3636H2.39332V27.2533H6.6141V29.3636ZM0.282931 18.8117H2.39332V27.2533H0.282931V18.8117ZM0.282931 47.3636V36.8117H6.6141V38.9221H2.39332V45.2533H6.6141V47.3636H0.282931ZM8.72449 38.9221V45.2533H6.6141V38.9221H8.72449ZM3.44233 65.3636V54.8117H5.55272V65.3636H3.44233ZM6.6141 74.9221H2.39332V72.8117H6.6141V74.9221ZM2.39332 81.2533H0.282931V74.9221H2.39332V81.2533ZM6.6141 83.3636H2.39332V81.2533H6.6141V83.3636ZM8.72449 81.2533H6.6141V74.9221H8.72449V81.2533Z" fill="#626773"/>
</svg>
