<svg width="168" height="43" viewBox="0 0 168 43" fill="none" xmlns="http://www.w3.org/2000/svg">
<rect y="40" width="3" height="3" rx="1.5" fill="#B3C8E1"/>
<rect y="20" width="3" height="3" rx="1.5" fill="#B3C8E1"/>
<rect y="30" width="3" height="3" rx="1.5" fill="#B3C8E1"/>
<rect y="10" width="3" height="3" rx="1.5" fill="#B3C8E1"/>
<rect width="3" height="3" rx="1.5" fill="#B3C8E1"/>
<rect x="25" y="40" width="3" height="3" rx="1.5" fill="#B3C8E1"/>
<rect x="100" y="40" width="3" height="3" rx="1.5" fill="#B3C8E1"/>
<rect x="55" y="40" width="3" height="3" rx="1.5" fill="#B3C8E1"/>
<rect x="130" y="40" width="3" height="3" rx="1.5" fill="#B3C8E1"/>
<rect x="10" y="40" width="3" height="3" rx="1.5" fill="#B3C8E1"/>
<rect x="85" y="40" width="3" height="3" rx="1.5" fill="#B3C8E1"/>
<rect x="35" y="40" width="3" height="3" rx="1.5" fill="#B3C8E1"/>
<rect x="110" y="40" width="3" height="3" rx="1.5" fill="#B3C8E1"/>
<rect x="65" y="40" width="3" height="3" rx="1.5" fill="#B3C8E1"/>
<rect x="140" y="40" width="3" height="3" rx="1.5" fill="#B3C8E1"/>
<rect x="20" y="40" width="3" height="3" rx="1.5" fill="#B3C8E1"/>
<rect x="95" y="40" width="3" height="3" rx="1.5" fill="#B3C8E1"/>
<rect x="45" y="40" width="3" height="3" rx="1.5" fill="#B3C8E1"/>
<rect x="120" y="40" width="3" height="3" rx="1.5" fill="#B3C8E1"/>
<rect x="75" y="40" width="3" height="3" rx="1.5" fill="#B3C8E1"/>
<rect x="150" y="40" width="3" height="3" rx="1.5" fill="#B3C8E1"/>
<rect x="160" y="40" width="3" height="3" rx="1.5" fill="#B3C8E1"/>
<rect x="5" y="40" width="3" height="3" rx="1.5" fill="#4C607D"/>
<rect y="35" width="3" height="3" rx="1.5" fill="#4C607D"/>
<rect y="15" width="3" height="3" rx="1.5" fill="#4C607D"/>
<rect y="25" width="3" height="3" rx="1.5" fill="#4C607D"/>
<rect y="5" width="3" height="3" rx="1.5" fill="#4C607D"/>
<rect x="80" y="40" width="3" height="3" rx="1.5" fill="#4C607D"/>
<rect x="30" y="40" width="3" height="3" rx="1.5" fill="#4C607D"/>
<rect x="105" y="40" width="3" height="3" rx="1.5" fill="#4C607D"/>
<rect x="60" y="40" width="3" height="3" rx="1.5" fill="#4C607D"/>
<rect x="135" y="40" width="3" height="3" rx="1.5" fill="#4C607D"/>
<rect x="15" y="40" width="3" height="3" rx="1.5" fill="#4C607D"/>
<rect x="90" y="40" width="3" height="3" rx="1.5" fill="#4C607D"/>
<rect x="40" y="40" width="3" height="3" rx="1.5" fill="#4C607D"/>
<rect x="115" y="40" width="3" height="3" rx="1.5" fill="#4C607D"/>
<rect x="50" y="40" width="3" height="3" rx="1.5" fill="#4C607D"/>
<rect x="125" y="40" width="3" height="3" rx="1.5" fill="#4C607D"/>
<rect x="70" y="40" width="3" height="3" rx="1.5" fill="#4C607D"/>
<rect x="145" y="40" width="3" height="3" rx="1.5" fill="#4C607D"/>
<rect x="155" y="40" width="3" height="3" rx="1.5" fill="#4C607D"/>
<rect x="165" y="40" width="3" height="3" rx="1.5" fill="#4C607D"/>
</svg>
