<svg width="158" height="28" viewBox="0 0 158 28" fill="none" xmlns="http://www.w3.org/2000/svg">
<g clip-path="url(#clip0_271_3124)">
<rect x="8" y="-2" width="6" height="30" fill="#37D339"/>
<rect x="8" y="26" width="6" height="2" fill="#197E0C"/>
<rect x="8" y="22" width="6" height="4" fill="#278F0A"/>
<rect x="8" y="16" width="6" height="6" fill="#37D339"/>
<rect x="8" y="14" width="6" height="2" fill="#8BDD29"/>
<rect x="8" y="12" width="6" height="2" fill="#BADE39"/>
<rect x="8" y="10" width="6" height="2" fill="#CAB836"/>
</g>
<g clip-path="url(#clip1_271_3124)">
<rect x="136" y="-2" width="6" height="30" fill="#37D339"/>
<rect x="136" y="26" width="6" height="2" fill="#197E0C"/>
<rect x="136" y="22" width="6" height="4" fill="#278F0A"/>
<rect x="136" y="16" width="6" height="6" fill="#37D339"/>
<rect x="136" y="14" width="6" height="2" fill="#8BDD29"/>
<rect x="136" y="12" width="6" height="2" fill="#BADE39"/>
<rect x="136" y="10" width="6" height="2" fill="#CAB836"/>
</g>
<g clip-path="url(#clip2_271_3124)">
<rect x="72" y="-2" width="6" height="30" fill="#37D339"/>
<rect x="72" y="26" width="6" height="2" fill="#197E0C"/>
<rect x="72" y="22" width="6" height="4" fill="#278F0A"/>
<rect x="72" y="16" width="6" height="6" fill="#37D339"/>
<rect x="72" y="14" width="6" height="2" fill="#8BDD29"/>
<rect x="72" y="12" width="6" height="2" fill="#BADE39"/>
<rect x="72" y="10" width="6" height="2" fill="#CAB836"/>
</g>
<g clip-path="url(#clip3_271_3124)">
<rect x="40" y="-2" width="6" height="30" fill="#37D339"/>
<rect x="40" y="26" width="6" height="2" fill="#197E0C"/>
<rect x="40" y="22" width="6" height="4" fill="#278F0A"/>
<rect x="40" y="16" width="6" height="6" fill="#37D339"/>
<rect x="40" y="14" width="6" height="2" fill="#8BDD29"/>
<rect x="40" y="12" width="6" height="2" fill="#BADE39"/>
<rect x="40" y="10" width="6" height="2" fill="#CAB836"/>
</g>
<g clip-path="url(#clip4_271_3124)">
<rect x="104" y="-2" width="6" height="30" fill="#37D339"/>
<rect x="104" y="26" width="6" height="2" fill="#197E0C"/>
<rect x="104" y="22" width="6" height="4" fill="#278F0A"/>
<rect x="104" y="16" width="6" height="6" fill="#37D339"/>
<rect x="104" y="14" width="6" height="2" fill="#8BDD29"/>
<rect x="104" y="12" width="6" height="2" fill="#BADE39"/>
<rect x="104" y="10" width="6" height="2" fill="#CAB836"/>
</g>
<g clip-path="url(#clip5_271_3124)">
<rect x="24" y="-2" width="6" height="30" fill="#37D339"/>
<rect x="24" y="26" width="6" height="2" fill="#197E0C"/>
<rect x="24" y="22" width="6" height="4" fill="#278F0A"/>
<rect x="24" y="16" width="6" height="6" fill="#37D339"/>
<rect x="24" y="14" width="6" height="2" fill="#8BDD29"/>
<rect x="24" y="12" width="6" height="2" fill="#BADE39"/>
<rect x="24" y="10" width="6" height="2" fill="#CAB836"/>
</g>
<g clip-path="url(#clip6_271_3124)">
<rect x="152" y="-2" width="6" height="30" fill="#37D339"/>
<rect x="152" y="26" width="6" height="2" fill="#197E0C"/>
<rect x="152" y="22" width="6" height="4" fill="#278F0A"/>
<rect x="152" y="16" width="6" height="6" fill="#37D339"/>
<rect x="152" y="14" width="6" height="2" fill="#8BDD29"/>
<rect x="152" y="12" width="6" height="2" fill="#BADE39"/>
<rect x="152" y="10" width="6" height="2" fill="#CAB836"/>
</g>
<g clip-path="url(#clip7_271_3124)">
<rect x="88" y="-2" width="6" height="30" fill="#37D339"/>
<rect x="88" y="26" width="6" height="2" fill="#197E0C"/>
<rect x="88" y="22" width="6" height="4" fill="#278F0A"/>
<rect x="88" y="16" width="6" height="6" fill="#37D339"/>
<rect x="88" y="14" width="6" height="2" fill="#8BDD29"/>
<rect x="88" y="12" width="6" height="2" fill="#BADE39"/>
<rect x="88" y="10" width="6" height="2" fill="#CAB836"/>
</g>
<g clip-path="url(#clip8_271_3124)">
<rect x="56" y="-2" width="6" height="30" fill="#37D339"/>
<rect x="56" y="26" width="6" height="2" fill="#197E0C"/>
</g>
<g clip-path="url(#clip9_271_3124)">
<rect x="120" y="-2" width="6" height="30" fill="#37D339"/>
<rect x="120" y="26" width="6" height="2" fill="#197E0C"/>
</g>
<g clip-path="url(#clip10_271_3124)">
<rect y="-2" width="6" height="30" fill="#37D339"/>
<rect y="26" width="6" height="2" fill="#197E0C"/>
<rect y="22" width="6" height="4" fill="#278F0A"/>
<rect y="16" width="6" height="6" fill="#37D339"/>
<rect y="14" width="6" height="2" fill="#8BDD29"/>
</g>
<g clip-path="url(#clip11_271_3124)">
<rect x="128" y="-2" width="6" height="30" fill="#37D339"/>
<rect x="128" y="26" width="6" height="2" fill="#197E0C"/>
<rect x="128" y="22" width="6" height="4" fill="#278F0A"/>
<rect x="128" y="16" width="6" height="6" fill="#37D339"/>
<rect x="128" y="14" width="6" height="2" fill="#8BDD29"/>
</g>
<g clip-path="url(#clip12_271_3124)">
<rect x="64" y="-2" width="6" height="30" fill="#37D339"/>
<rect x="64" y="26" width="6" height="2" fill="#197E0C"/>
<rect x="64" y="22" width="6" height="4" fill="#278F0A"/>
<rect x="64" y="16" width="6" height="6" fill="#37D339"/>
<rect x="64" y="14" width="6" height="2" fill="#8BDD29"/>
<rect x="64" y="12" width="6" height="2" fill="#BADE39"/>
<rect x="64" y="10" width="6" height="2" fill="#CAB836"/>
<rect x="64" y="8" width="6" height="2" fill="#CA9836"/>
</g>
<g clip-path="url(#clip13_271_3124)">
<rect x="32" y="-2" width="6" height="30" fill="#37D339"/>
<rect x="32" y="26" width="6" height="2" fill="#197E0C"/>
</g>
<g clip-path="url(#clip14_271_3124)">
<rect x="96" y="-2" width="6" height="30" fill="#37D339"/>
<rect x="96" y="26" width="6" height="2" fill="#197E0C"/>
</g>
<g clip-path="url(#clip15_271_3124)">
<rect x="16" y="-2" width="6" height="30" fill="#37D339"/>
<rect x="16" y="26" width="6" height="2" fill="#197E0C"/>
<rect x="16" y="22" width="6" height="4" fill="#278F0A"/>
<rect x="16" y="16" width="6" height="6" fill="#37D339"/>
<rect x="16" y="14" width="6" height="2" fill="#8BDD29"/>
<rect x="16" y="12" width="6" height="2" fill="#BADE39"/>
<rect x="16" y="10" width="6" height="2" fill="#CAB836"/>
<rect x="16" y="8" width="6" height="2" fill="#CA9836"/>
</g>
<g clip-path="url(#clip16_271_3124)">
<rect x="144" y="-2" width="6" height="30" fill="#37D339"/>
<rect x="144" y="26" width="6" height="2" fill="#197E0C"/>
<rect x="144" y="22" width="6" height="4" fill="#278F0A"/>
<rect x="144" y="16" width="6" height="6" fill="#37D339"/>
<rect x="144" y="14" width="6" height="2" fill="#8BDD29"/>
<rect x="144" y="12" width="6" height="2" fill="#BADE39"/>
<rect x="144" y="10" width="6" height="2" fill="#CAB836"/>
<rect x="144" y="8" width="6" height="2" fill="#CA9836"/>
</g>
<g clip-path="url(#clip17_271_3124)">
<rect x="80" y="-2" width="6" height="30" fill="#37D339"/>
<rect x="80" y="26" width="6" height="2" fill="#197E0C"/>
<rect x="80" y="22" width="6" height="4" fill="#278F0A"/>
<rect x="80" y="16" width="6" height="6" fill="#37D339"/>
<rect x="80" y="14" width="6" height="2" fill="#8BDD29"/>
<rect x="80" y="12" width="6" height="2" fill="#BADE39"/>
<rect x="80" y="10" width="6" height="2" fill="#CAB836"/>
<rect x="80" y="8" width="6" height="2" fill="#CA9836"/>
</g>
<g clip-path="url(#clip18_271_3124)">
<rect x="48" y="-2" width="6" height="30" fill="#37D339"/>
<rect x="48" y="26" width="6" height="2" fill="#197E0C"/>
<rect x="48" y="22" width="6" height="4" fill="#278F0A"/>
<rect x="48" y="16" width="6" height="6" fill="#37D339"/>
<rect x="48" y="14" width="6" height="2" fill="#8BDD29"/>
<rect x="48" y="12" width="6" height="2" fill="#BADE39"/>
<rect x="48" y="10" width="6" height="2" fill="#CAB836"/>
<rect x="48" y="8" width="6" height="2" fill="#CA9836"/>
</g>
<g clip-path="url(#clip19_271_3124)">
<rect x="112" y="-2" width="6" height="30" fill="#37D339"/>
<rect x="112" y="26" width="6" height="2" fill="#197E0C"/>
<rect x="112" y="22" width="6" height="4" fill="#278F0A"/>
<rect x="112" y="16" width="6" height="6" fill="#37D339"/>
<rect x="112" y="14" width="6" height="2" fill="#8BDD29"/>
<rect x="112" y="12" width="6" height="2" fill="#BADE39"/>
<rect x="112" y="10" width="6" height="2" fill="#CAB836"/>
<rect x="112" y="8" width="6" height="2" fill="#CA9836"/>
</g>
<rect y="7" width="6" height="1" fill="#99989D"/>
<rect x="48" y="7" width="6" height="1" fill="#99989D"/>
<rect x="97" y="7" width="6" height="1" fill="#99989D"/>
<rect x="8" y="3" width="6" height="1" fill="#99989D"/>
<rect x="56" y="3" width="6" height="1" fill="#99989D"/>
<rect x="105" y="3" width="6" height="1" fill="#99989D"/>
<rect x="32" y="7" width="6" height="1" fill="#99989D"/>
<rect x="80" y="7" width="6" height="1" fill="#99989D"/>
<rect x="129" y="7" width="6" height="1" fill="#99989D"/>
<rect x="144" y="7" width="6" height="1" fill="#99989D"/>
<rect x="40" y="3" width="6" height="1" fill="#99989D"/>
<rect x="88" y="3" width="6" height="1" fill="#99989D"/>
<rect x="137" y="3" width="6" height="1" fill="#99989D"/>
<rect x="152" y="3" width="6" height="1" fill="#99989D"/>
<rect x="16" y="1" width="6" height="1" fill="#99989D"/>
<rect x="64" y="1" width="6" height="1" fill="#99989D"/>
<rect x="113" y="1" width="6" height="1" fill="#99989D"/>
<rect x="24" y="1" width="6" height="1" fill="#99989D"/>
<rect x="72" y="1" width="6" height="1" fill="#99989D"/>
<rect x="121" y="1" width="6" height="1" fill="#99989D"/>
<defs>
<clipPath id="clip0_271_3124">
<rect width="6" height="18" fill="white" transform="translate(8 10)"/>
</clipPath>
<clipPath id="clip1_271_3124">
<rect width="6" height="18" fill="white" transform="translate(136 10)"/>
</clipPath>
<clipPath id="clip2_271_3124">
<rect width="6" height="18" fill="white" transform="translate(72 10)"/>
</clipPath>
<clipPath id="clip3_271_3124">
<rect width="6" height="18" fill="white" transform="translate(40 10)"/>
</clipPath>
<clipPath id="clip4_271_3124">
<rect width="6" height="18" fill="white" transform="translate(104 10)"/>
</clipPath>
<clipPath id="clip5_271_3124">
<rect width="6" height="18" fill="white" transform="translate(24 10)"/>
</clipPath>
<clipPath id="clip6_271_3124">
<rect width="6" height="18" fill="white" transform="translate(152 10)"/>
</clipPath>
<clipPath id="clip7_271_3124">
<rect width="6" height="18" fill="white" transform="translate(88 10)"/>
</clipPath>
<clipPath id="clip8_271_3124">
<rect width="6" height="2" fill="white" transform="translate(56 26)"/>
</clipPath>
<clipPath id="clip9_271_3124">
<rect width="6" height="2" fill="white" transform="translate(120 26)"/>
</clipPath>
<clipPath id="clip10_271_3124">
<rect width="6" height="14" fill="white" transform="translate(0 14)"/>
</clipPath>
<clipPath id="clip11_271_3124">
<rect width="6" height="14" fill="white" transform="translate(128 14)"/>
</clipPath>
<clipPath id="clip12_271_3124">
<rect width="6" height="20" fill="white" transform="translate(64 8)"/>
</clipPath>
<clipPath id="clip13_271_3124">
<rect width="6" height="2" fill="white" transform="translate(32 26)"/>
</clipPath>
<clipPath id="clip14_271_3124">
<rect width="6" height="2" fill="white" transform="translate(96 26)"/>
</clipPath>
<clipPath id="clip15_271_3124">
<rect width="6" height="20" fill="white" transform="translate(16 8)"/>
</clipPath>
<clipPath id="clip16_271_3124">
<rect width="6" height="20" fill="white" transform="translate(144 8)"/>
</clipPath>
<clipPath id="clip17_271_3124">
<rect width="6" height="20" fill="white" transform="translate(80 8)"/>
</clipPath>
<clipPath id="clip18_271_3124">
<rect width="6" height="20" fill="white" transform="translate(48 8)"/>
</clipPath>
<clipPath id="clip19_271_3124">
<rect width="6" height="20" fill="white" transform="translate(112 8)"/>
</clipPath>
</defs>
</svg>
