<svg width="32" height="33" viewBox="0 0 32 33" fill="none" xmlns="http://www.w3.org/2000/svg">
<g opacity="0.4" clip-path="url(#clip0_319_3130)">
<path d="M10.7928 26.1609L15.9943 31.5474L30.9379 16.5045L24.4407 9.9919L21.6725 12.7479L23.6571 13.4888L23.6463 17.8057L10.7928 26.1609Z" fill="white" stroke="black" stroke-width="0.0412118"/>
<path d="M0.993164 16.3548L15.9299 1.42133L21.0116 6.57622L7.74376 14.3264L7.54841 18.1382L8.35139 18.9304L10.1448 18.9337L6.88691 22.166L0.993164 16.3548Z" fill="white" stroke="black" stroke-width="0.0412118"/>
<path d="M7.82104 14.3544C7.90026 14.2211 8.15293 14.0566 8.15293 14.0566L25.5126 3.87277L26.6194 3.24846C26.6194 3.24846 27.0764 3.4172 27.227 3.59555C27.3944 3.79391 27.4946 4.32727 27.4946 4.32727L27.3318 7.11345L21.6725 12.7479L23.6571 13.4888L23.7303 14.9439L23.6463 17.8057L4.47357 30.2686L3.80892 30.4277L3.41086 29.9537C3.41401 28.543 3.41514 27.1323 3.40869 25.7216L10.2221 18.9617L8.42867 18.9584C8.42867 18.9584 7.86104 19 7.71331 18.8435C7.5681 18.6898 7.62569 18.1662 7.62569 18.1662L7.7349 14.8138C7.7349 14.8138 7.73218 14.504 7.82104 14.3544Z" fill="#FCA600" stroke="black" stroke-width="1.24609"/>
<path d="M1.07043 16.3828L6.96418 22.194" stroke="black" stroke-width="1.55761" stroke-linejoin="round"/>
<path d="M1.07043 16.3828L16.0072 1.44931" stroke="black" stroke-width="1.56773" stroke-linecap="square" stroke-linejoin="round"/>
<path d="M16.0072 1.44931L21.0889 6.60421" stroke="black" stroke-width="1.55761" stroke-linejoin="round"/>
<path d="M24.4407 9.99189L30.9379 16.5045L15.9943 31.5474L10.7928 26.1609" stroke="black" stroke-width="1.55761"/>
<path opacity="0.681563" d="M4.51904 26.0782L16.571 14.3726L10.4066 14.4953L9.43607 14.6403L15.2982 14.7119L4.82145 25.2263L4.51904 26.0782Z" fill="white"/>
<path opacity="0.55611" d="M8.96552 14.8465C9.89753 14.8501 13.1873 14.7568 15.2982 14.7119L14.6708 15.3525L9.94026 15.1237L8.96552 14.8465Z" fill="#ED5814"/>
<path opacity="0.674746" d="M17.9354 12.0416L19.2921 10.1952L25.8612 4.67979L24.7024 5.98518L17.9354 12.0416Z" fill="white"/>
<path opacity="0.650701" d="M25.8612 4.67979L25.0225 6.30777L18.2991 12.0191L17.9354 12.0416L24.7024 5.98518L25.8612 4.67979Z" fill="#EC4D00"/>
<path d="M22.4621 14.082L22.7127 14.3341L4.96277 25.8712L4.76813 25.8444L8.00115 23.4496L16.6696 17.6364L22.4621 14.082Z" fill="#ED5906"/>
</g>
<defs>
<clipPath id="clip0_319_3130">
<rect width="32" height="32.2462" fill="white" transform="translate(0 0.376923)"/>
</clipPath>
</defs>
</svg>
