<svg width="39" height="31" viewBox="0 0 39 31" fill="none" xmlns="http://www.w3.org/2000/svg">
<g filter="url(#filter0_ii_404_1657)">
<rect width="39" height="31" fill="#BFCED9"/>
<g filter="url(#filter1_ii_404_1657)">
<rect x="18.5" y="24.5" width="2.58333" height="2" transform="rotate(-180 18.5 24.5)" fill="#99A9B5"/>
<rect x="15.9167" y="22.5" width="2.58333" height="2" transform="rotate(-180 15.9167 22.5)" fill="#99A9B5"/>
<rect x="15.9167" y="24.5" width="2.58333" height="2" transform="rotate(-180 15.9167 24.5)" fill="#99A9B5"/>
<path d="M15.9167 10.5H13.3334V8.5H15.9167V10.5Z" fill="#99A9B5"/>
<path d="M15.9167 8.5H13.3334V6.5H15.9167V8.5Z" fill="#99A9B5"/>
<rect x="18.5" y="8.5" width="2.58333" height="2" transform="rotate(-180 18.5 8.5)" fill="#99A9B5"/>
<rect x="18.5" y="10.5" width="2.58333" height="2" transform="rotate(-180 18.5 10.5)" fill="#99A9B5"/>
<rect x="18.5" y="12.5" width="2.58333" height="2" transform="rotate(-180 18.5 12.5)" fill="#99A9B5"/>
<rect x="18.5" y="14.5" width="2.58333" height="2" transform="rotate(-180 18.5 14.5)" fill="#99A9B5"/>
<rect x="18.5" y="16.5" width="2.58333" height="2" transform="rotate(-180 18.5 16.5)" fill="#99A9B5"/>
<rect x="18.5" y="18.5" width="2.58333" height="2" transform="rotate(-180 18.5 18.5)" fill="#99A9B5"/>
<rect x="18.5" y="20.5" width="2.58333" height="2" transform="rotate(-180 18.5 20.5)" fill="#99A9B5"/>
<rect x="18.5" y="22.5" width="2.58333" height="2" transform="rotate(-180 18.5 22.5)" fill="#99A9B5"/>
<rect x="15.9167" y="20.5" width="2.58333" height="2" transform="rotate(-180 15.9167 20.5)" fill="#99A9B5"/>
<rect x="15.9167" y="18.5" width="2.58333" height="2" transform="rotate(-180 15.9167 18.5)" fill="#99A9B5"/>
<rect x="15.9167" y="16.5" width="2.58333" height="2" transform="rotate(-180 15.9167 16.5)" fill="#99A9B5"/>
<rect x="15.9167" y="14.5" width="2.58333" height="2" transform="rotate(-180 15.9167 14.5)" fill="#99A9B5"/>
<rect x="15.9167" y="12.5" width="2.58333" height="2" transform="rotate(-180 15.9167 12.5)" fill="#99A9B5"/>
<rect x="13.3333" y="22.5" width="2.58333" height="2" transform="rotate(-180 13.3333 22.5)" fill="#99A9B5"/>
<rect x="13.3333" y="24.5" width="2.58333" height="2" transform="rotate(-180 13.3333 24.5)" fill="#99A9B5"/>
<path d="M13.3333 10.5H10.75V8.5H13.3333V10.5Z" fill="#99A9B5"/>
<path d="M13.3333 8.5H10.75V6.5H13.3333V8.5Z" fill="#99A9B5"/>
<rect x="13.3333" y="20.5" width="2.58333" height="2" transform="rotate(-180 13.3333 20.5)" fill="#99A9B5"/>
<rect x="13.3333" y="18.5" width="2.58333" height="2" transform="rotate(-180 13.3333 18.5)" fill="#99A9B5"/>
<rect x="13.3333" y="16.5" width="2.58333" height="2" transform="rotate(-180 13.3333 16.5)" fill="#99A9B5"/>
<rect x="13.3333" y="14.5" width="2.58333" height="2" transform="rotate(-180 13.3333 14.5)" fill="#99A9B5"/>
<rect x="13.3333" y="12.5" width="2.58333" height="2" transform="rotate(-180 13.3333 12.5)" fill="#99A9B5"/>
</g>
<g filter="url(#filter2_ii_404_1657)">
<rect x="28.25" y="24.5" width="2.58333" height="2" transform="rotate(-180 28.25 24.5)" fill="#99A9B5"/>
<rect x="25.6667" y="22.5" width="2.58333" height="2" transform="rotate(-180 25.6667 22.5)" fill="#99A9B5"/>
<rect x="25.6667" y="24.5" width="2.58333" height="2" transform="rotate(-180 25.6667 24.5)" fill="#99A9B5"/>
<path d="M25.6667 10.5H23.0834V8.5H25.6667V10.5Z" fill="#99A9B5"/>
<path d="M25.6667 8.5H23.0834V6.5H25.6667V8.5Z" fill="#99A9B5"/>
<rect x="28.25" y="8.5" width="2.58333" height="2" transform="rotate(-180 28.25 8.5)" fill="#99A9B5"/>
<rect x="28.25" y="10.5" width="2.58333" height="2" transform="rotate(-180 28.25 10.5)" fill="#99A9B5"/>
<rect x="28.25" y="12.5" width="2.58333" height="2" transform="rotate(-180 28.25 12.5)" fill="#99A9B5"/>
<rect x="28.25" y="14.5" width="2.58333" height="2" transform="rotate(-180 28.25 14.5)" fill="#99A9B5"/>
<rect x="28.25" y="16.5" width="2.58333" height="2" transform="rotate(-180 28.25 16.5)" fill="#99A9B5"/>
<rect x="28.25" y="18.5" width="2.58333" height="2" transform="rotate(-180 28.25 18.5)" fill="#99A9B5"/>
<rect x="28.25" y="20.5" width="2.58333" height="2" transform="rotate(-180 28.25 20.5)" fill="#99A9B5"/>
<rect x="28.25" y="22.5" width="2.58333" height="2" transform="rotate(-180 28.25 22.5)" fill="#99A9B5"/>
<rect x="25.6667" y="20.5" width="2.58333" height="2" transform="rotate(-180 25.6667 20.5)" fill="#99A9B5"/>
<rect x="25.6667" y="18.5" width="2.58333" height="2" transform="rotate(-180 25.6667 18.5)" fill="#99A9B5"/>
<rect x="25.6667" y="16.5" width="2.58333" height="2" transform="rotate(-180 25.6667 16.5)" fill="#99A9B5"/>
<rect x="25.6667" y="14.5" width="2.58333" height="2" transform="rotate(-180 25.6667 14.5)" fill="#99A9B5"/>
<rect x="25.6667" y="12.5" width="2.58333" height="2" transform="rotate(-180 25.6667 12.5)" fill="#99A9B5"/>
<rect x="23.0833" y="22.5" width="2.58333" height="2" transform="rotate(-180 23.0833 22.5)" fill="#99A9B5"/>
<rect x="23.0833" y="24.5" width="2.58333" height="2" transform="rotate(-180 23.0833 24.5)" fill="#99A9B5"/>
<path d="M23.0833 10.5H20.5V8.5H23.0833V10.5Z" fill="#99A9B5"/>
<path d="M23.0833 8.5H20.5V6.5H23.0833V8.5Z" fill="#99A9B5"/>
<rect x="23.0833" y="20.5" width="2.58333" height="2" transform="rotate(-180 23.0833 20.5)" fill="#99A9B5"/>
<rect x="23.0833" y="18.5" width="2.58333" height="2" transform="rotate(-180 23.0833 18.5)" fill="#99A9B5"/>
<rect x="23.0833" y="16.5" width="2.58333" height="2" transform="rotate(-180 23.0833 16.5)" fill="#99A9B5"/>
<rect x="23.0833" y="14.5" width="2.58333" height="2" transform="rotate(-180 23.0833 14.5)" fill="#99A9B5"/>
<rect x="23.0833" y="12.5" width="2.58333" height="2" transform="rotate(-180 23.0833 12.5)" fill="#99A9B5"/>
</g>
</g>
<defs>
<filter id="filter0_ii_404_1657" x="0" y="0" width="39" height="31" filterUnits="userSpaceOnUse" color-interpolation-filters="sRGB">
<feFlood flood-opacity="0" result="BackgroundImageFix"/>
<feBlend mode="normal" in="SourceGraphic" in2="BackgroundImageFix" result="shape"/>
<feColorMatrix in="SourceAlpha" type="matrix" values="0 0 0 0 0 0 0 0 0 0 0 0 0 0 0 0 0 0 127 0" result="hardAlpha"/>
<feOffset dx="-2" dy="-2"/>
<feComposite in2="hardAlpha" operator="arithmetic" k2="-1" k3="1"/>
<feColorMatrix type="matrix" values="0 0 0 0 0.486275 0 0 0 0 0.541176 0 0 0 0 0.592157 0 0 0 1 0"/>
<feBlend mode="normal" in2="shape" result="effect1_innerShadow_404_1657"/>
<feColorMatrix in="SourceAlpha" type="matrix" values="0 0 0 0 0 0 0 0 0 0 0 0 0 0 0 0 0 0 127 0" result="hardAlpha"/>
<feOffset dx="2" dy="2"/>
<feComposite in2="hardAlpha" operator="arithmetic" k2="-1" k3="1"/>
<feColorMatrix type="matrix" values="0 0 0 0 0.937255 0 0 0 0 1 0 0 0 0 1 0 0 0 1 0"/>
<feBlend mode="normal" in2="effect1_innerShadow_404_1657" result="effect2_innerShadow_404_1657"/>
</filter>
<filter id="filter1_ii_404_1657" x="10.75" y="6.5" width="7.75" height="18" filterUnits="userSpaceOnUse" color-interpolation-filters="sRGB">
<feFlood flood-opacity="0" result="BackgroundImageFix"/>
<feBlend mode="normal" in="SourceGraphic" in2="BackgroundImageFix" result="shape"/>
<feColorMatrix in="SourceAlpha" type="matrix" values="0 0 0 0 0 0 0 0 0 0 0 0 0 0 0 0 0 0 127 0" result="hardAlpha"/>
<feOffset dx="2" dy="2"/>
<feComposite in2="hardAlpha" operator="arithmetic" k2="-1" k3="1"/>
<feColorMatrix type="matrix" values="0 0 0 0 0.207843 0 0 0 0 0.258824 0 0 0 0 0.309804 0 0 0 1 0"/>
<feBlend mode="normal" in2="shape" result="effect1_innerShadow_404_1657"/>
<feColorMatrix in="SourceAlpha" type="matrix" values="0 0 0 0 0 0 0 0 0 0 0 0 0 0 0 0 0 0 127 0" result="hardAlpha"/>
<feOffset dx="-2" dy="-2"/>
<feComposite in2="hardAlpha" operator="arithmetic" k2="-1" k3="1"/>
<feColorMatrix type="matrix" values="0 0 0 0 0.875625 0 0 0 0 0.950863 0 0 0 0 0.974375 0 0 0 1 0"/>
<feBlend mode="normal" in2="effect1_innerShadow_404_1657" result="effect2_innerShadow_404_1657"/>
</filter>
<filter id="filter2_ii_404_1657" x="20.5" y="6.5" width="7.75" height="18" filterUnits="userSpaceOnUse" color-interpolation-filters="sRGB">
<feFlood flood-opacity="0" result="BackgroundImageFix"/>
<feBlend mode="normal" in="SourceGraphic" in2="BackgroundImageFix" result="shape"/>
<feColorMatrix in="SourceAlpha" type="matrix" values="0 0 0 0 0 0 0 0 0 0 0 0 0 0 0 0 0 0 127 0" result="hardAlpha"/>
<feOffset dx="2" dy="2"/>
<feComposite in2="hardAlpha" operator="arithmetic" k2="-1" k3="1"/>
<feColorMatrix type="matrix" values="0 0 0 0 0.207843 0 0 0 0 0.258824 0 0 0 0 0.309804 0 0 0 1 0"/>
<feBlend mode="normal" in2="shape" result="effect1_innerShadow_404_1657"/>
<feColorMatrix in="SourceAlpha" type="matrix" values="0 0 0 0 0 0 0 0 0 0 0 0 0 0 0 0 0 0 127 0" result="hardAlpha"/>
<feOffset dx="-2" dy="-2"/>
<feComposite in2="hardAlpha" operator="arithmetic" k2="-1" k3="1"/>
<feColorMatrix type="matrix" values="0 0 0 0 0.875625 0 0 0 0 0.950863 0 0 0 0 0.974375 0 0 0 1 0"/>
<feBlend mode="normal" in2="effect1_innerShadow_404_1657" result="effect2_innerShadow_404_1657"/>
</filter>
</defs>
</svg>
