<svg width="20" height="18" viewBox="0 0 20 18" fill="none" xmlns="http://www.w3.org/2000/svg">
<rect x="10" width="2" height="2" fill="#37D339"/>
<rect x="12" y="2" width="2" height="2" fill="#37D339"/>
<rect x="14" y="4" width="2" height="2" fill="#37D339"/>
<rect x="16" y="6" width="2" height="2" fill="#37D339"/>
<rect x="18" y="8" width="2" height="2" fill="#37D339"/>
<rect x="16" y="10" width="2" height="2" fill="#37D339"/>
<rect x="14" y="12" width="2" height="2" fill="#37D339"/>
<rect x="12" y="14" width="2" height="2" fill="#37D339"/>
<rect x="10" y="16" width="2" height="2" fill="#37D339"/>
<rect x="10" y="14" width="2" height="2" fill="#37D339"/>
<rect x="10" y="12" width="2" height="2" fill="#37D339"/>
<rect x="10" y="10" width="2" height="2" fill="#37D339"/>
<rect x="10" y="8" width="2" height="2" fill="#37D339"/>
<rect x="10" y="6" width="2" height="2" fill="#37D339"/>
<rect x="10" y="4" width="2" height="2" fill="#37D339"/>
<rect x="10" y="2" width="2" height="2" fill="#37D339"/>
<rect x="12" y="4" width="2" height="2" fill="#37D339"/>
<rect x="12" y="6" width="2" height="2" fill="#37D339"/>
<rect x="14" y="6" width="2" height="2" fill="#37D339"/>
<rect x="16" y="8" width="2" height="2" fill="#37D339"/>
<rect x="14" y="8" width="2" height="2" fill="#37D339"/>
<rect x="12" y="8" width="2" height="2" fill="#37D339"/>
<rect x="14" y="10" width="2" height="2" fill="#37D339"/>
<rect x="12" y="10" width="2" height="2" fill="#37D339"/>
<rect x="12" y="12" width="2" height="2" fill="#37D339"/>
<rect width="6" height="6" fill="#37D339"/>
<rect y="12" width="6" height="6" fill="#50141A"/>
</svg>
