<svg width="39" height="31" viewBox="0 0 39 31" fill="none" xmlns="http://www.w3.org/2000/svg">
<g filter="url(#filter0_ii_404_1754)">
<rect width="39" height="31" fill="#BFCED9"/>
<g filter="url(#filter1_ii_404_1754)">
<rect x="15.5" y="24.5" width="2" height="2" transform="rotate(-180 15.5 24.5)" fill="#99A9B5"/>
<rect x="13.5" y="22.5" width="2" height="2" transform="rotate(-180 13.5 22.5)" fill="#99A9B5"/>
<rect x="13.5" y="24.5" width="2" height="2" transform="rotate(-180 13.5 24.5)" fill="#99A9B5"/>
<path d="M13.5 10.5H11.5V8.5H13.5V10.5Z" fill="#99A9B5"/>
<path d="M13.5 8.5H11.5V6.5H13.5V8.5Z" fill="#99A9B5"/>
<rect x="15.5" y="8.5" width="2" height="2" transform="rotate(-180 15.5 8.5)" fill="#99A9B5"/>
<rect x="15.5" y="10.5" width="2" height="2" transform="rotate(-180 15.5 10.5)" fill="#99A9B5"/>
<rect x="15.5" y="12.5" width="2" height="2" transform="rotate(-180 15.5 12.5)" fill="#99A9B5"/>
<rect x="15.5" y="14.5" width="2" height="2" transform="rotate(-180 15.5 14.5)" fill="#99A9B5"/>
<rect x="15.5" y="16.5" width="2" height="2" transform="rotate(-180 15.5 16.5)" fill="#99A9B5"/>
<rect x="15.5" y="18.5" width="2" height="2" transform="rotate(-180 15.5 18.5)" fill="#99A9B5"/>
<rect x="15.5" y="20.5" width="2" height="2" transform="rotate(-180 15.5 20.5)" fill="#99A9B5"/>
<rect x="15.5" y="22.5" width="2" height="2" transform="rotate(-180 15.5 22.5)" fill="#99A9B5"/>
<rect x="13.5" y="20.5" width="2" height="2" transform="rotate(-180 13.5 20.5)" fill="#99A9B5"/>
<rect x="13.5" y="18.5" width="2" height="2" transform="rotate(-180 13.5 18.5)" fill="#99A9B5"/>
<rect x="13.5" y="16.5" width="2" height="2" transform="rotate(-180 13.5 16.5)" fill="#99A9B5"/>
<rect x="13.5" y="14.5" width="2" height="2" transform="rotate(-180 13.5 14.5)" fill="#99A9B5"/>
<rect x="13.5" y="12.5" width="2" height="2" transform="rotate(-180 13.5 12.5)" fill="#99A9B5"/>
<rect x="11.5" y="22.5" width="2" height="2" transform="rotate(-180 11.5 22.5)" fill="#99A9B5"/>
<rect x="11.5" y="24.5" width="2" height="2" transform="rotate(-180 11.5 24.5)" fill="#99A9B5"/>
<path d="M11.5 10.5H9.5V8.5H11.5V10.5Z" fill="#99A9B5"/>
<path d="M11.5 8.5H9.5V6.5H11.5V8.5Z" fill="#99A9B5"/>
<rect x="11.5" y="20.5" width="2" height="2" transform="rotate(-180 11.5 20.5)" fill="#99A9B5"/>
<rect x="11.5" y="18.5" width="2" height="2" transform="rotate(-180 11.5 18.5)" fill="#99A9B5"/>
<rect x="11.5" y="16.5" width="2" height="2" transform="rotate(-180 11.5 16.5)" fill="#99A9B5"/>
<rect x="11.5" y="14.5" width="2" height="2" transform="rotate(-180 11.5 14.5)" fill="#99A9B5"/>
<rect x="11.5" y="12.5" width="2" height="2" transform="rotate(-180 11.5 12.5)" fill="#99A9B5"/>
</g>
<g filter="url(#filter2_ii_404_1754)">
<rect x="27.5" y="24.5" width="2" height="2" transform="rotate(-180 27.5 24.5)" fill="#99A9B5"/>
<rect x="25.5" y="22.5" width="2" height="2" transform="rotate(-180 25.5 22.5)" fill="#99A9B5"/>
<rect x="23.5" y="20.5" width="2" height="2" transform="rotate(-180 23.5 20.5)" fill="#99A9B5"/>
<rect x="21.5" y="18.5" width="2" height="2" transform="rotate(-180 21.5 18.5)" fill="#99A9B5"/>
<rect x="19.5" y="16.5" width="2" height="2" transform="rotate(-180 19.5 16.5)" fill="#99A9B5"/>
<rect x="21.5" y="14.5" width="2" height="2" transform="rotate(-180 21.5 14.5)" fill="#99A9B5"/>
<rect x="23.5" y="12.5" width="2" height="2" transform="rotate(-180 23.5 12.5)" fill="#99A9B5"/>
<rect x="25.5" y="10.5" width="2" height="2" transform="rotate(-180 25.5 10.5)" fill="#99A9B5"/>
<rect x="27.5" y="8.5" width="2" height="2" transform="rotate(-180 27.5 8.5)" fill="#99A9B5"/>
<rect x="27.5" y="10.5" width="2" height="2" transform="rotate(-180 27.5 10.5)" fill="#99A9B5"/>
<rect x="27.5" y="12.5" width="2" height="2" transform="rotate(-180 27.5 12.5)" fill="#99A9B5"/>
<rect x="27.5" y="14.5" width="2" height="2" transform="rotate(-180 27.5 14.5)" fill="#99A9B5"/>
<rect x="27.5" y="16.5" width="2" height="2" transform="rotate(-180 27.5 16.5)" fill="#99A9B5"/>
<rect x="27.5" y="18.5" width="2" height="2" transform="rotate(-180 27.5 18.5)" fill="#99A9B5"/>
<rect x="27.5" y="20.5" width="2" height="2" transform="rotate(-180 27.5 20.5)" fill="#99A9B5"/>
<rect x="27.5" y="22.5" width="2" height="2" transform="rotate(-180 27.5 22.5)" fill="#99A9B5"/>
<rect x="29.5" y="24.5" width="2" height="2" transform="rotate(-180 29.5 24.5)" fill="#99A9B5"/>
<rect x="29.5" y="8.5" width="2" height="2" transform="rotate(-180 29.5 8.5)" fill="#99A9B5"/>
<rect x="29.5" y="10.5" width="2" height="2" transform="rotate(-180 29.5 10.5)" fill="#99A9B5"/>
<rect x="29.5" y="12.5" width="2" height="2" transform="rotate(-180 29.5 12.5)" fill="#99A9B5"/>
<rect x="29.5" y="14.5" width="2" height="2" transform="rotate(-180 29.5 14.5)" fill="#99A9B5"/>
<rect x="29.5" y="16.5" width="2" height="2" transform="rotate(-180 29.5 16.5)" fill="#99A9B5"/>
<rect x="29.5" y="18.5" width="2" height="2" transform="rotate(-180 29.5 18.5)" fill="#99A9B5"/>
<rect x="29.5" y="20.5" width="2" height="2" transform="rotate(-180 29.5 20.5)" fill="#99A9B5"/>
<rect x="29.5" y="22.5" width="2" height="2" transform="rotate(-180 29.5 22.5)" fill="#99A9B5"/>
<rect x="25.5" y="20.5" width="2" height="2" transform="rotate(-180 25.5 20.5)" fill="#99A9B5"/>
<rect x="25.5" y="18.5" width="2" height="2" transform="rotate(-180 25.5 18.5)" fill="#99A9B5"/>
<rect x="23.5" y="18.5" width="2" height="2" transform="rotate(-180 23.5 18.5)" fill="#99A9B5"/>
<rect x="21.5" y="16.5" width="2" height="2" transform="rotate(-180 21.5 16.5)" fill="#99A9B5"/>
<rect x="23.5" y="16.5" width="2" height="2" transform="rotate(-180 23.5 16.5)" fill="#99A9B5"/>
<rect x="25.5" y="16.5" width="2" height="2" transform="rotate(-180 25.5 16.5)" fill="#99A9B5"/>
<rect x="23.5" y="14.5" width="2" height="2" transform="rotate(-180 23.5 14.5)" fill="#99A9B5"/>
<rect x="25.5" y="14.5" width="2" height="2" transform="rotate(-180 25.5 14.5)" fill="#99A9B5"/>
<rect x="25.5" y="12.5" width="2" height="2" transform="rotate(-180 25.5 12.5)" fill="#99A9B5"/>
</g>
</g>
<defs>
<filter id="filter0_ii_404_1754" x="0" y="0" width="39" height="31" filterUnits="userSpaceOnUse" color-interpolation-filters="sRGB">
<feFlood flood-opacity="0" result="BackgroundImageFix"/>
<feBlend mode="normal" in="SourceGraphic" in2="BackgroundImageFix" result="shape"/>
<feColorMatrix in="SourceAlpha" type="matrix" values="0 0 0 0 0 0 0 0 0 0 0 0 0 0 0 0 0 0 127 0" result="hardAlpha"/>
<feOffset dx="-2" dy="-2"/>
<feComposite in2="hardAlpha" operator="arithmetic" k2="-1" k3="1"/>
<feColorMatrix type="matrix" values="0 0 0 0 0.486275 0 0 0 0 0.541176 0 0 0 0 0.592157 0 0 0 1 0"/>
<feBlend mode="normal" in2="shape" result="effect1_innerShadow_404_1754"/>
<feColorMatrix in="SourceAlpha" type="matrix" values="0 0 0 0 0 0 0 0 0 0 0 0 0 0 0 0 0 0 127 0" result="hardAlpha"/>
<feOffset dx="2" dy="2"/>
<feComposite in2="hardAlpha" operator="arithmetic" k2="-1" k3="1"/>
<feColorMatrix type="matrix" values="0 0 0 0 0.937255 0 0 0 0 1 0 0 0 0 1 0 0 0 1 0"/>
<feBlend mode="normal" in2="effect1_innerShadow_404_1754" result="effect2_innerShadow_404_1754"/>
</filter>
<filter id="filter1_ii_404_1754" x="9.5" y="6.5" width="6" height="18" filterUnits="userSpaceOnUse" color-interpolation-filters="sRGB">
<feFlood flood-opacity="0" result="BackgroundImageFix"/>
<feBlend mode="normal" in="SourceGraphic" in2="BackgroundImageFix" result="shape"/>
<feColorMatrix in="SourceAlpha" type="matrix" values="0 0 0 0 0 0 0 0 0 0 0 0 0 0 0 0 0 0 127 0" result="hardAlpha"/>
<feOffset dx="2" dy="2"/>
<feComposite in2="hardAlpha" operator="arithmetic" k2="-1" k3="1"/>
<feColorMatrix type="matrix" values="0 0 0 0 0.207843 0 0 0 0 0.258824 0 0 0 0 0.309804 0 0 0 1 0"/>
<feBlend mode="normal" in2="shape" result="effect1_innerShadow_404_1754"/>
<feColorMatrix in="SourceAlpha" type="matrix" values="0 0 0 0 0 0 0 0 0 0 0 0 0 0 0 0 0 0 127 0" result="hardAlpha"/>
<feOffset dx="-2" dy="-2"/>
<feComposite in2="hardAlpha" operator="arithmetic" k2="-1" k3="1"/>
<feColorMatrix type="matrix" values="0 0 0 0 0.875625 0 0 0 0 0.950863 0 0 0 0 0.974375 0 0 0 1 0"/>
<feBlend mode="normal" in2="effect1_innerShadow_404_1754" result="effect2_innerShadow_404_1754"/>
</filter>
<filter id="filter2_ii_404_1754" x="17.5" y="6.5" width="12" height="18" filterUnits="userSpaceOnUse" color-interpolation-filters="sRGB">
<feFlood flood-opacity="0" result="BackgroundImageFix"/>
<feBlend mode="normal" in="SourceGraphic" in2="BackgroundImageFix" result="shape"/>
<feColorMatrix in="SourceAlpha" type="matrix" values="0 0 0 0 0 0 0 0 0 0 0 0 0 0 0 0 0 0 127 0" result="hardAlpha"/>
<feOffset dx="-2" dy="-4"/>
<feComposite in2="hardAlpha" operator="arithmetic" k2="-1" k3="1"/>
<feColorMatrix type="matrix" values="0 0 0 0 0.875625 0 0 0 0 0.950863 0 0 0 0 0.974375 0 0 0 1 0"/>
<feBlend mode="normal" in2="shape" result="effect1_innerShadow_404_1754"/>
<feColorMatrix in="SourceAlpha" type="matrix" values="0 0 0 0 0 0 0 0 0 0 0 0 0 0 0 0 0 0 127 0" result="hardAlpha"/>
<feOffset dy="2"/>
<feComposite in2="hardAlpha" operator="arithmetic" k2="-1" k3="1"/>
<feColorMatrix type="matrix" values="0 0 0 0 0.207843 0 0 0 0 0.258824 0 0 0 0 0.309804 0 0 0 1 0"/>
<feBlend mode="normal" in2="effect1_innerShadow_404_1754" result="effect2_innerShadow_404_1754"/>
</filter>
</defs>
</svg>
