<svg width="39" height="31" viewBox="0 0 39 31" fill="none" xmlns="http://www.w3.org/2000/svg">
<g filter="url(#filter0_ii_404_1978)">
<rect width="39" height="31" fill="#BFCED9"/>
<g filter="url(#filter1_ii_404_1978)">
<rect x="9" y="16.5" width="2" height="2.33333" transform="rotate(-90 9 16.5)" fill="#99A9B5"/>
<rect x="11.3333" y="14.5" width="2" height="2.33333" transform="rotate(-90 11.3333 14.5)" fill="#99A9B5"/>
<rect x="13.6667" y="12.5" width="2" height="2.33333" transform="rotate(-90 13.6667 12.5)" fill="#99A9B5"/>
<rect x="16" y="10.5" width="2" height="2.33333" transform="rotate(-90 16 10.5)" fill="#99A9B5"/>
<rect x="18.3333" y="8.5" width="2" height="2.33333" transform="rotate(-90 18.3333 8.5)" fill="#99A9B5"/>
<rect x="20.6667" y="10.5" width="2" height="2.33333" transform="rotate(-90 20.6667 10.5)" fill="#99A9B5"/>
<rect x="23" y="12.5" width="2" height="2.33333" transform="rotate(-90 23 12.5)" fill="#99A9B5"/>
<rect x="25.3333" y="14.5" width="2" height="2.33333" transform="rotate(-90 25.3333 14.5)" fill="#99A9B5"/>
<rect x="27.6667" y="16.5" width="2" height="2.33333" transform="rotate(-90 27.6667 16.5)" fill="#99A9B5"/>
<rect x="25.3333" y="16.5" width="2" height="2.33333" transform="rotate(-90 25.3333 16.5)" fill="#99A9B5"/>
<rect x="23" y="16.5" width="2" height="2.33333" transform="rotate(-90 23 16.5)" fill="#99A9B5"/>
<rect x="20.6667" y="16.5" width="2" height="2.33333" transform="rotate(-90 20.6667 16.5)" fill="#99A9B5"/>
<rect x="18.3333" y="16.5" width="2" height="2.33333" transform="rotate(-90 18.3333 16.5)" fill="#99A9B5"/>
<rect x="16" y="16.5" width="2" height="2.33333" transform="rotate(-90 16 16.5)" fill="#99A9B5"/>
<rect x="13.6667" y="16.5" width="2" height="2.33333" transform="rotate(-90 13.6667 16.5)" fill="#99A9B5"/>
<rect x="11.3333" y="16.5" width="2" height="2.33333" transform="rotate(-90 11.3333 16.5)" fill="#99A9B5"/>
<rect x="13.6667" y="14.5" width="2" height="2.33333" transform="rotate(-90 13.6667 14.5)" fill="#99A9B5"/>
<rect x="16" y="14.5" width="2" height="2.33333" transform="rotate(-90 16 14.5)" fill="#99A9B5"/>
<rect x="16" y="12.5" width="2" height="2.33333" transform="rotate(-90 16 12.5)" fill="#99A9B5"/>
<rect x="18.3333" y="10.5" width="2" height="2.33333" transform="rotate(-90 18.3333 10.5)" fill="#99A9B5"/>
<rect x="18.3333" y="12.5" width="2" height="2.33333" transform="rotate(-90 18.3333 12.5)" fill="#99A9B5"/>
<rect x="18.3333" y="14.5" width="2" height="2.33333" transform="rotate(-90 18.3333 14.5)" fill="#99A9B5"/>
<rect x="20.6667" y="12.5" width="2" height="2.33333" transform="rotate(-90 20.6667 12.5)" fill="#99A9B5"/>
<rect x="20.6667" y="14.5" width="2" height="2.33333" transform="rotate(-90 20.6667 14.5)" fill="#99A9B5"/>
<rect x="23" y="14.5" width="2" height="2.33333" transform="rotate(-90 23 14.5)" fill="#99A9B5"/>
</g>
<g filter="url(#filter2_ii_404_1978)">
<rect x="30" y="18.5" width="2" height="2.33333" transform="rotate(90 30 18.5)" fill="#99A9B5"/>
<rect x="27.6667" y="20.5" width="2" height="2.33333" transform="rotate(90 27.6667 20.5)" fill="#99A9B5"/>
<rect x="30" y="20.5" width="2" height="2.33333" transform="rotate(90 30 20.5)" fill="#99A9B5"/>
<path d="M13.6667 20.5L13.6667 22.5L11.3334 22.5L11.3334 20.5L13.6667 20.5Z" fill="#99A9B5"/>
<path d="M11.3333 20.5L11.3333 22.5L8.99998 22.5L8.99998 20.5L11.3333 20.5Z" fill="#99A9B5"/>
<rect x="11.3333" y="18.5" width="2" height="2.33333" transform="rotate(90 11.3333 18.5)" fill="#99A9B5"/>
<rect x="13.6667" y="18.5" width="2" height="2.33333" transform="rotate(90 13.6667 18.5)" fill="#99A9B5"/>
<rect x="16" y="18.5" width="2" height="2.33333" transform="rotate(90 16 18.5)" fill="#99A9B5"/>
<rect x="18.3333" y="18.5" width="2" height="2.33333" transform="rotate(90 18.3333 18.5)" fill="#99A9B5"/>
<rect x="20.6667" y="18.5" width="2" height="2.33333" transform="rotate(90 20.6667 18.5)" fill="#99A9B5"/>
<rect x="23" y="18.5" width="2" height="2.33333" transform="rotate(90 23 18.5)" fill="#99A9B5"/>
<rect x="25.3333" y="18.5" width="2" height="2.33333" transform="rotate(90 25.3333 18.5)" fill="#99A9B5"/>
<rect x="27.6667" y="18.5" width="2" height="2.33333" transform="rotate(90 27.6667 18.5)" fill="#99A9B5"/>
<rect x="25.3333" y="20.5" width="2" height="2.33333" transform="rotate(90 25.3333 20.5)" fill="#99A9B5"/>
<rect x="23" y="20.5" width="2" height="2.33333" transform="rotate(90 23 20.5)" fill="#99A9B5"/>
<rect x="20.6667" y="20.5" width="2" height="2.33333" transform="rotate(90 20.6667 20.5)" fill="#99A9B5"/>
<rect x="18.3333" y="20.5" width="2" height="2.33333" transform="rotate(90 18.3333 20.5)" fill="#99A9B5"/>
<rect x="16" y="20.5" width="2" height="2.33333" transform="rotate(90 16 20.5)" fill="#99A9B5"/>
<rect x="27.6667" y="22.5" width="2" height="2.33333" transform="rotate(90 27.6667 22.5)" fill="#99A9B5"/>
<rect x="30" y="22.5" width="2" height="2.33333" transform="rotate(90 30 22.5)" fill="#99A9B5"/>
<path d="M13.6667 22.5L13.6667 24.5L11.3334 24.5L11.3334 22.5L13.6667 22.5Z" fill="#99A9B5"/>
<path d="M11.3333 22.5L11.3333 24.5L8.99998 24.5L8.99998 22.5L11.3333 22.5Z" fill="#99A9B5"/>
<rect x="25.3333" y="22.5" width="2" height="2.33333" transform="rotate(90 25.3333 22.5)" fill="#99A9B5"/>
<rect x="23" y="22.5" width="2" height="2.33333" transform="rotate(90 23 22.5)" fill="#99A9B5"/>
<rect x="20.6667" y="22.5" width="2" height="2.33333" transform="rotate(90 20.6667 22.5)" fill="#99A9B5"/>
<rect x="18.3333" y="22.5" width="2" height="2.33333" transform="rotate(90 18.3333 22.5)" fill="#99A9B5"/>
<rect x="16" y="22.5" width="2" height="2.33333" transform="rotate(90 16 22.5)" fill="#99A9B5"/>
</g>
</g>
<defs>
<filter id="filter0_ii_404_1978" x="0" y="0" width="39" height="31" filterUnits="userSpaceOnUse" color-interpolation-filters="sRGB">
<feFlood flood-opacity="0" result="BackgroundImageFix"/>
<feBlend mode="normal" in="SourceGraphic" in2="BackgroundImageFix" result="shape"/>
<feColorMatrix in="SourceAlpha" type="matrix" values="0 0 0 0 0 0 0 0 0 0 0 0 0 0 0 0 0 0 127 0" result="hardAlpha"/>
<feOffset dx="-2" dy="-2"/>
<feComposite in2="hardAlpha" operator="arithmetic" k2="-1" k3="1"/>
<feColorMatrix type="matrix" values="0 0 0 0 0.486275 0 0 0 0 0.541176 0 0 0 0 0.592157 0 0 0 1 0"/>
<feBlend mode="normal" in2="shape" result="effect1_innerShadow_404_1978"/>
<feColorMatrix in="SourceAlpha" type="matrix" values="0 0 0 0 0 0 0 0 0 0 0 0 0 0 0 0 0 0 127 0" result="hardAlpha"/>
<feOffset dx="2" dy="2"/>
<feComposite in2="hardAlpha" operator="arithmetic" k2="-1" k3="1"/>
<feColorMatrix type="matrix" values="0 0 0 0 0.937255 0 0 0 0 1 0 0 0 0 1 0 0 0 1 0"/>
<feBlend mode="normal" in2="effect1_innerShadow_404_1978" result="effect2_innerShadow_404_1978"/>
</filter>
<filter id="filter1_ii_404_1978" x="9" y="6.5" width="21" height="10" filterUnits="userSpaceOnUse" color-interpolation-filters="sRGB">
<feFlood flood-opacity="0" result="BackgroundImageFix"/>
<feBlend mode="normal" in="SourceGraphic" in2="BackgroundImageFix" result="shape"/>
<feColorMatrix in="SourceAlpha" type="matrix" values="0 0 0 0 0 0 0 0 0 0 0 0 0 0 0 0 0 0 127 0" result="hardAlpha"/>
<feOffset dy="2"/>
<feComposite in2="hardAlpha" operator="arithmetic" k2="-1" k3="1"/>
<feColorMatrix type="matrix" values="0 0 0 0 0.207843 0 0 0 0 0.258824 0 0 0 0 0.309804 0 0 0 1 0"/>
<feBlend mode="normal" in2="shape" result="effect1_innerShadow_404_1978"/>
<feColorMatrix in="SourceAlpha" type="matrix" values="0 0 0 0 0 0 0 0 0 0 0 0 0 0 0 0 0 0 127 0" result="hardAlpha"/>
<feOffset dy="-2"/>
<feComposite in2="hardAlpha" operator="arithmetic" k2="-1" k3="1"/>
<feColorMatrix type="matrix" values="0 0 0 0 0.875625 0 0 0 0 0.950863 0 0 0 0 0.974375 0 0 0 1 0"/>
<feBlend mode="normal" in2="effect1_innerShadow_404_1978" result="effect2_innerShadow_404_1978"/>
</filter>
<filter id="filter2_ii_404_1978" x="9" y="18.5" width="21" height="6" filterUnits="userSpaceOnUse" color-interpolation-filters="sRGB">
<feFlood flood-opacity="0" result="BackgroundImageFix"/>
<feBlend mode="normal" in="SourceGraphic" in2="BackgroundImageFix" result="shape"/>
<feColorMatrix in="SourceAlpha" type="matrix" values="0 0 0 0 0 0 0 0 0 0 0 0 0 0 0 0 0 0 127 0" result="hardAlpha"/>
<feOffset dx="2" dy="2"/>
<feComposite in2="hardAlpha" operator="arithmetic" k2="-1" k3="1"/>
<feColorMatrix type="matrix" values="0 0 0 0 0.207843 0 0 0 0 0.258824 0 0 0 0 0.309804 0 0 0 1 0"/>
<feBlend mode="normal" in2="shape" result="effect1_innerShadow_404_1978"/>
<feColorMatrix in="SourceAlpha" type="matrix" values="0 0 0 0 0 0 0 0 0 0 0 0 0 0 0 0 0 0 127 0" result="hardAlpha"/>
<feOffset dx="-2" dy="-2"/>
<feComposite in2="hardAlpha" operator="arithmetic" k2="-1" k3="1"/>
<feColorMatrix type="matrix" values="0 0 0 0 0.875625 0 0 0 0 0.950863 0 0 0 0 0.974375 0 0 0 1 0"/>
<feBlend mode="normal" in2="effect1_innerShadow_404_1978" result="effect2_innerShadow_404_1978"/>
</filter>
</defs>
</svg>
