<svg width="20" height="11" viewBox="0 0 20 11" fill="none" xmlns="http://www.w3.org/2000/svg">
<rect x="9.5" y="0.5" width="2" height="2" fill="#192531"/>
<rect x="7.5" y="0.5" width="2" height="2" fill="#192531"/>
<rect x="11.5" y="0.5" width="2" height="2" fill="#192531"/>
<rect x="13.5" y="0.5" width="2" height="2" fill="#192531"/>
<rect x="15.5" y="0.5" width="2" height="2" fill="#192531"/>
<rect x="17.5" y="2.5" width="2" height="2" fill="#192531"/>
<rect x="17.5" y="4.5" width="2" height="2" fill="#192531"/>
<rect x="17.5" y="6.5" width="2" height="2" fill="#192531"/>
<rect x="15.5" y="8.5" width="2" height="2" fill="#192531"/>
<rect x="13.5" y="8.5" width="2" height="2" fill="#192531"/>
<rect x="11.5" y="8.5" width="2" height="2" fill="#192531"/>
<rect x="9.5" y="8.5" width="2" height="2" fill="#192531"/>
<rect x="7.5" y="8.5" width="2" height="2" fill="#192531"/>
<rect x="5.5" y="8.5" width="2" height="2" fill="#192531"/>
<rect x="4.5" y="6.5" width="2" height="2" fill="#192531"/>
<rect x="2.5" y="4.5" width="2" height="2" fill="#192531"/>
<rect x="0.5" y="2.5" width="2" height="2" fill="#192531"/>
<rect x="0.5" y="4.5" width="2" height="2" fill="#192531"/>
<rect x="0.5" y="6.5" width="2" height="2" fill="#192531"/>
<rect x="2.5" y="2.5" width="2" height="2" fill="#192531"/>
<rect x="4.5" y="2.5" width="2" height="2" fill="#192531"/>
</svg>
