<svg width="14" height="14" viewBox="0 0 14 14" fill="none" xmlns="http://www.w3.org/2000/svg">
<path d="M7.19383 1.48184L6.58712 0.87513C6.1422 0.430211 5.40672 0.437639 4.95272 0.891639L0.825454 5.01891C0.371454 5.47291 0.364026 6.20839 0.808945 6.6533L1.41565 7.26001C1.65834 7.5027 2.02484 7.62156 2.39299 7.57699L6.35599 7.57781L6.35682 11.5408C6.31224 11.909 6.43111 12.2755 6.67379 12.5182L7.2805 13.1249C7.72542 13.5698 8.4609 13.5624 8.9149 13.1084L13.0422 8.98108C13.4962 8.52708 13.5036 7.79161 13.0587 7.34669L12.452 6.73998C12.2093 6.4973 11.8428 6.37843 11.4746 6.423L7.51163 6.42218L7.47036 2.41873C7.55538 2.09102 7.43651 1.72452 7.19383 1.48184ZM11.5035 7.60753C11.5035 7.60753 11.5852 7.6067 11.6265 7.56543L12.2332 8.17214C10.6596 9.74573 9.59568 10.8097 8.10595 12.2994L7.49925 11.6927C7.54052 11.6514 7.50007 11.611 7.54134 11.5697L7.50007 7.56626L11.5035 7.60753ZM2.24111 6.43456L1.6344 5.82785L5.76167 1.70058L6.36837 2.30729L6.36755 6.43373L2.24111 6.43456Z" fill="#AC9B7E"/>
</svg>
