<svg width="39" height="31" viewBox="0 0 39 31" fill="none" xmlns="http://www.w3.org/2000/svg">
<g filter="url(#filter0_ii_404_1941)">
<rect width="39" height="31" fill="#BFCED9"/>
<g filter="url(#filter1_ii_404_1941)">
<rect x="28.5" y="24.5" width="6" height="2" transform="rotate(-180 28.5 24.5)" fill="#99A9B5"/>
<rect x="22.5" y="22.5" width="6" height="2" transform="rotate(-180 22.5 22.5)" fill="#99A9B5"/>
<rect x="22.5" y="24.5" width="6" height="2" transform="rotate(-180 22.5 24.5)" fill="#99A9B5"/>
<path d="M22.5 10.5H16.5V8.5H22.5V10.5Z" fill="#99A9B5"/>
<path d="M22.5 8.5H16.5V6.5L22.5 6.5V8.5Z" fill="#99A9B5"/>
<rect x="28.5" y="8.5" width="6" height="2" transform="rotate(-180 28.5 8.5)" fill="#99A9B5"/>
<rect x="28.5" y="10.5" width="6" height="2" transform="rotate(-180 28.5 10.5)" fill="#99A9B5"/>
<rect x="28.5" y="12.5" width="6" height="2" transform="rotate(-180 28.5 12.5)" fill="#99A9B5"/>
<rect x="28.5" y="14.5" width="6" height="2" transform="rotate(-180 28.5 14.5)" fill="#99A9B5"/>
<rect x="28.5" y="16.5" width="6" height="2" transform="rotate(-180 28.5 16.5)" fill="#99A9B5"/>
<rect x="28.5" y="18.5" width="6" height="2" transform="rotate(-180 28.5 18.5)" fill="#99A9B5"/>
<rect x="28.5" y="20.5" width="6" height="2" transform="rotate(-180 28.5 20.5)" fill="#99A9B5"/>
<rect x="28.5" y="22.5" width="6" height="2" transform="rotate(-180 28.5 22.5)" fill="#99A9B5"/>
<rect x="22.5" y="20.5" width="6" height="2" transform="rotate(-180 22.5 20.5)" fill="#99A9B5"/>
<rect x="22.5" y="18.5" width="6" height="2" transform="rotate(-180 22.5 18.5)" fill="#99A9B5"/>
<rect x="22.5" y="16.5" width="6" height="2" transform="rotate(-180 22.5 16.5)" fill="#99A9B5"/>
<rect x="22.5" y="14.5" width="6" height="2" transform="rotate(-180 22.5 14.5)" fill="#99A9B5"/>
<rect x="22.5" y="12.5" width="6" height="2" transform="rotate(-180 22.5 12.5)" fill="#99A9B5"/>
<rect x="16.5" y="22.5" width="6" height="2" transform="rotate(-180 16.5 22.5)" fill="#99A9B5"/>
<rect x="16.5" y="24.5" width="6" height="2" transform="rotate(-180 16.5 24.5)" fill="#99A9B5"/>
<path d="M16.5 10.5H10.5V8.5H16.5V10.5Z" fill="#99A9B5"/>
<path d="M16.5 8.5H10.5V6.5L16.5 6.5V8.5Z" fill="#99A9B5"/>
<rect x="16.5" y="20.5" width="6" height="2" transform="rotate(-180 16.5 20.5)" fill="#99A9B5"/>
<rect x="16.5" y="18.5" width="6" height="2" transform="rotate(-180 16.5 18.5)" fill="#99A9B5"/>
<rect x="16.5" y="16.5" width="6" height="2" transform="rotate(-180 16.5 16.5)" fill="#99A9B5"/>
<rect x="16.5" y="14.5" width="6" height="2" transform="rotate(-180 16.5 14.5)" fill="#99A9B5"/>
<rect x="16.5" y="12.5" width="6" height="2" transform="rotate(-180 16.5 12.5)" fill="#99A9B5"/>
</g>
</g>
<defs>
<filter id="filter0_ii_404_1941" x="0" y="0" width="39" height="31" filterUnits="userSpaceOnUse" color-interpolation-filters="sRGB">
<feFlood flood-opacity="0" result="BackgroundImageFix"/>
<feBlend mode="normal" in="SourceGraphic" in2="BackgroundImageFix" result="shape"/>
<feColorMatrix in="SourceAlpha" type="matrix" values="0 0 0 0 0 0 0 0 0 0 0 0 0 0 0 0 0 0 127 0" result="hardAlpha"/>
<feOffset dx="-2" dy="-2"/>
<feComposite in2="hardAlpha" operator="arithmetic" k2="-1" k3="1"/>
<feColorMatrix type="matrix" values="0 0 0 0 0.486275 0 0 0 0 0.541176 0 0 0 0 0.592157 0 0 0 1 0"/>
<feBlend mode="normal" in2="shape" result="effect1_innerShadow_404_1941"/>
<feColorMatrix in="SourceAlpha" type="matrix" values="0 0 0 0 0 0 0 0 0 0 0 0 0 0 0 0 0 0 127 0" result="hardAlpha"/>
<feOffset dx="2" dy="2"/>
<feComposite in2="hardAlpha" operator="arithmetic" k2="-1" k3="1"/>
<feColorMatrix type="matrix" values="0 0 0 0 0.937255 0 0 0 0 1 0 0 0 0 1 0 0 0 1 0"/>
<feBlend mode="normal" in2="effect1_innerShadow_404_1941" result="effect2_innerShadow_404_1941"/>
</filter>
<filter id="filter1_ii_404_1941" x="10.5" y="6.5" width="18" height="18" filterUnits="userSpaceOnUse" color-interpolation-filters="sRGB">
<feFlood flood-opacity="0" result="BackgroundImageFix"/>
<feBlend mode="normal" in="SourceGraphic" in2="BackgroundImageFix" result="shape"/>
<feColorMatrix in="SourceAlpha" type="matrix" values="0 0 0 0 0 0 0 0 0 0 0 0 0 0 0 0 0 0 127 0" result="hardAlpha"/>
<feOffset dx="2" dy="2"/>
<feComposite in2="hardAlpha" operator="arithmetic" k2="-1" k3="1"/>
<feColorMatrix type="matrix" values="0 0 0 0 0.207843 0 0 0 0 0.258824 0 0 0 0 0.309804 0 0 0 1 0"/>
<feBlend mode="normal" in2="shape" result="effect1_innerShadow_404_1941"/>
<feColorMatrix in="SourceAlpha" type="matrix" values="0 0 0 0 0 0 0 0 0 0 0 0 0 0 0 0 0 0 127 0" result="hardAlpha"/>
<feOffset dx="-2" dy="-2"/>
<feComposite in2="hardAlpha" operator="arithmetic" k2="-1" k3="1"/>
<feColorMatrix type="matrix" values="0 0 0 0 0.875625 0 0 0 0 0.950863 0 0 0 0 0.974375 0 0 0 1 0"/>
<feBlend mode="normal" in2="effect1_innerShadow_404_1941" result="effect2_innerShadow_404_1941"/>
</filter>
</defs>
</svg>
